<svg width="14" height="17" viewBox="0 0 14 17" fill="none" xmlns="http://www.w3.org/2000/svg">
<path d="M7 16.5L6.69223 16.8941C6.87309 17.0353 7.12691 17.0353 7.30777 16.8941L7 16.5ZM12.5 6.5C12.5 8.98073 11.0909 11.3673 9.61281 13.1763C8.8808 14.0722 8.14759 14.8073 7.59726 15.3184C7.32241 15.5736 7.09399 15.7722 6.93525 15.9062C6.8559 15.9732 6.79403 16.024 6.75254 16.0576C6.7318 16.0745 6.71615 16.087 6.70598 16.0951C6.70089 16.0991 6.69717 16.1021 6.69486 16.1039C6.69371 16.1048 6.69291 16.1054 6.69247 16.1058C6.69225 16.1059 6.69212 16.106 6.69208 16.1061C6.69206 16.1061 6.69209 16.1061 6.69208 16.1061C6.69214 16.106 6.69223 16.1059 7 16.5C7.30777 16.8941 7.3079 16.8939 7.30805 16.8938C7.30813 16.8938 7.30831 16.8936 7.30847 16.8935C7.3088 16.8933 7.30921 16.8929 7.30972 16.8925C7.31073 16.8917 7.3121 16.8907 7.31383 16.8893C7.31729 16.8866 7.32218 16.8827 7.32844 16.8777C7.34097 16.8678 7.35903 16.8533 7.38223 16.8345C7.42863 16.7969 7.49566 16.7418 7.58037 16.6703C7.74976 16.5273 7.99009 16.3182 8.27774 16.0511C8.85241 15.5175 9.6192 14.7489 10.3872 13.809C11.9091 11.9464 13.5 9.33298 13.5 6.5H12.5ZM7 16.5C7.30777 16.1059 7.30786 16.106 7.30792 16.1061C7.30791 16.1061 7.30794 16.1061 7.30792 16.1061C7.30788 16.106 7.30775 16.1059 7.30753 16.1058C7.30709 16.1054 7.30629 16.1048 7.30514 16.1039C7.30283 16.1021 7.29911 16.0991 7.29402 16.0951C7.28385 16.087 7.2682 16.0745 7.24746 16.0576C7.20597 16.024 7.1441 15.9732 7.06475 15.9062C6.90601 15.7722 6.67759 15.5736 6.40274 15.3184C5.85241 14.8073 5.1192 14.0722 4.38719 13.1763C2.90908 11.3673 1.5 8.98073 1.5 6.5H0.5C0.5 9.33298 2.09092 11.9464 3.61281 13.809C4.3808 14.7489 5.14759 15.5175 5.72226 16.0511C6.00991 16.3182 6.25024 16.5273 6.41963 16.6703C6.50434 16.7418 6.57137 16.7969 6.61777 16.8345C6.64097 16.8533 6.65903 16.8678 6.67156 16.8777C6.67782 16.8827 6.68271 16.8866 6.68617 16.8893C6.6879 16.8907 6.68927 16.8917 6.69028 16.8925C6.69079 16.8929 6.6912 16.8933 6.69153 16.8935C6.69169 16.8936 6.69187 16.8938 6.69195 16.8938C6.6921 16.8939 6.69223 16.8941 7 16.5ZM1.5 6.5C1.5 3.46243 3.96243 1 7 1V0C3.41015 0 0.5 2.91015 0.5 6.5H1.5ZM7 1C10.0376 1 12.5 3.46243 12.5 6.5H13.5C13.5 2.91015 10.5899 0 7 0V1ZM9.5 6.5C9.5 7.88071 8.38071 9 7 9V10C8.933 10 10.5 8.433 10.5 6.5H9.5ZM7 9C5.61929 9 4.5 7.88071 4.5 6.5H3.5C3.5 8.433 5.067 10 7 10V9ZM4.5 6.5C4.5 5.11929 5.61929 4 7 4V3C5.067 3 3.5 4.567 3.5 6.5H4.5ZM7 4C8.38071 4 9.5 5.11929 9.5 6.5H10.5C10.5 4.567 8.933 3 7 3V4Z" fill="#00FF38"/>
</svg>
