<svg width="91" height="77" viewBox="0 0 91 77" fill="none" xmlns="http://www.w3.org/2000/svg">
<path d="M32.2042 26.9388C33.3536 20.8142 34.3438 15.5376 35.4578 9.60148C40.4372 10.5359 45.1833 11.4266 50.3184 12.3903C49.2397 18.138 48.2141 23.603 47.0648 29.7276C42.0853 28.7932 37.1837 27.8733 32.2042 26.9388Z" fill="#00FF38"/>
<path d="M35.6107 22.4501C36.7601 16.3255 37.7503 11.0489 38.8643 5.11274C42.1839 5.73571 45.348 6.32948 48.7714 6.97192C47.6927 12.7196 46.6671 18.1847 45.5178 24.3093C42.1981 23.6863 38.9304 23.0731 35.6107 22.4501Z" fill="#00FF38"/>
<path d="M64.2492 20.1325C64.906 16.6327 65.4718 13.6175 66.1084 10.2254C71.0879 11.1599 75.8339 12.0506 80.969 13.0142C80.3526 16.2986 79.7666 19.4215 79.1098 22.9213C74.1303 21.9868 69.2287 21.067 64.2492 20.1325Z" fill="#00FF38"/>
<path d="M54.4886 72.1446C55.1454 68.6448 55.7112 65.6296 56.3478 62.2375C61.3272 63.172 66.0733 64.0626 71.2084 65.0263C70.592 68.3107 70.006 71.4336 69.3492 74.9334C64.3697 73.9989 59.4681 73.079 54.4886 72.1446Z" fill="#00FF38"/>
<path d="M57.9014 26.6332C58.5581 23.1335 59.124 20.1183 59.7605 16.7262C68.0597 18.2836 75.9697 19.768 84.5282 21.3741C83.9118 24.6586 83.3258 27.7814 82.669 31.2812C74.3699 29.7238 66.2005 28.1907 57.9014 26.6332Z" fill="#00FF38"/>
<path d="M53.7183 48.9241C54.375 45.4244 54.9409 42.4092 55.5774 39.0171C63.8766 40.5745 71.7866 42.0589 80.3451 43.665C79.7287 46.9494 79.1427 50.0723 78.4859 53.5721C70.1868 52.0147 62.0174 50.4816 53.7183 48.9241Z" fill="#00FF38"/>
<path d="M50.4646 66.2615C51.1214 62.7617 51.6872 59.7465 52.3238 56.3544C60.6229 57.9119 68.533 59.3963 77.0914 61.0024C76.4751 64.2868 75.889 67.4097 75.2322 70.9094C66.9331 69.352 58.7637 67.8189 50.4646 66.2615Z" fill="#00FF38"/>
<path d="M45.9759 62.8551C46.6327 59.3553 47.1985 56.3401 47.8351 52.948C50.3248 53.4152 52.6978 53.8606 55.2654 54.3424C54.649 57.6268 54.063 60.7497 53.4062 64.2495C50.9165 63.7822 48.4656 63.3223 45.9759 62.8551Z" fill="#00FF38"/>
<path d="M79.7275 33.2932C80.3843 29.7934 80.9501 26.7782 81.5867 23.3861C84.0764 23.8534 86.4494 24.2987 89.017 24.7805C88.4006 28.0649 87.8146 31.1878 87.1578 34.6876C84.6681 34.2203 82.2172 33.7604 79.7275 33.2932Z" fill="#00FF38"/>
<path d="M49.2296 45.5178C50.8716 36.7684 52.2862 29.2304 53.8776 20.7502C57.1973 21.3732 60.3613 21.9669 63.7847 22.6094C62.2438 30.8204 60.7786 38.6276 59.1367 47.377C55.8171 46.7541 52.5493 46.1408 49.2296 45.5178Z" fill="#00FF38"/>
<path d="M70.2789 69.9799C71.5924 62.9803 72.7241 56.95 73.9972 50.1658C77.3169 50.7888 80.4809 51.3825 83.9043 52.025C82.6716 58.5938 81.4995 64.8395 80.1859 71.8391C76.8663 71.2161 73.5985 70.6029 70.2789 69.9799Z" fill="#00FF38"/>
<path d="M29.4154 41.7994C31.0573 33.05 32.4719 25.512 34.0634 17.0318C39.0428 17.9662 43.7889 18.8569 48.924 19.8206C47.3831 28.0316 45.9179 35.8388 44.276 44.5882C39.2965 43.6537 34.3949 42.7339 29.4154 41.7994Z" fill="#00FF38"/>
<path d="M27.0914 54.1832C28.7334 45.4338 30.148 37.8958 31.7394 29.4156C36.7189 30.35 41.4649 31.2407 46.6 32.2043C45.0591 40.4154 43.594 48.2226 41.952 56.972C36.9725 56.0375 32.0709 55.1177 27.0914 54.1832Z" fill="#00FF38"/>
<path d="M3.40629 57.4304C4.06307 53.9307 4.62891 50.9155 5.26548 47.5234C16.8842 49.7038 27.9584 51.782 39.9402 54.0305C39.3238 57.3149 38.7378 60.4378 38.081 63.9376C26.4623 61.7572 15.025 59.6108 3.40629 57.4304Z" fill="#00FF38"/>
<path d="M7.43001 63.3135C8.08678 59.8137 8.65262 56.7985 9.28919 53.4064C16.7584 54.8081 23.8775 56.1441 31.5801 57.5896C30.9637 60.874 30.3777 63.9969 29.7209 67.4967C22.2517 66.095 14.8992 64.7152 7.43001 63.3135Z" fill="#00FF38"/>
<path d="M0.929538 56.9656C2.0789 50.841 3.06912 45.5644 4.18311 39.6282C9.16258 40.5627 13.9086 41.4533 19.0437 42.417C17.9651 48.1647 16.9395 53.6297 15.7901 59.7543C10.8107 58.8199 5.909 57.9 0.929538 56.9656Z" fill="#00FF38"/>
<path d="M6.19489 42.5698C6.68747 39.9449 7.11185 37.6835 7.58928 35.1395C10.9089 35.7624 14.073 36.3562 17.4963 36.9987C17.0341 39.462 16.5945 41.8041 16.1019 44.429C12.7823 43.806 9.51453 43.1927 6.19489 42.5698Z" fill="#00FF38"/>
</svg>
