<?xml version="1.0" encoding="UTF-8"?>
<svg id="Layer_1" data-name="Layer 1" xmlns="http://www.w3.org/2000/svg" viewBox="0 0 315.9 204.76">
  <defs>
    <style>
      .cls-1 {
        fill: #24a3ec;
      }

      .cls-1, .cls-2, .cls-3, .cls-4, .cls-5, .cls-6, .cls-7, .cls-8, .cls-9, .cls-10, .cls-11, .cls-12 {
        stroke-width: 0px;
      }

      .cls-2 {
        fill: #535353;
      }

      .cls-3 {
        fill: #25a4ed;
      }

      .cls-4 {
        fill: #c4c4c4;
      }

      .cls-5 {
        fill: #ddd;
      }

      .cls-6 {
        fill: #dbdbdb;
      }

      .cls-7 {
        fill: #bbb;
      }

      .cls-8 {
        fill: #bebebe;
      }

      .cls-9 {
        fill: silver;
      }

      .cls-10 {
        fill: #bfbfbf;
      }

      .cls-11 {
        fill: #c1c1c1;
      }

      .cls-12 {
        fill: #bababa;
      }
    </style>
  </defs>
  <path class="cls-3" d="M174.35,0c1.13.4,2.22.91,3.38,1.17,23.1,5.31,39.69,24.88,40.3,48.77.47,18.34.76,36.77-.39,55.06-1.64,25.98-22.74,45.39-49.27,46.94-24.28,1.42-47.01-16.38-52.26-41.09-.77-3.64-1.19-7.42-1.2-11.14-.02-17.48-.56-35.01.45-52.44,1.27-22,16.67-39.69,37.89-45.58,1.35-.38,2.6-1.11,3.9-1.68h17.21-.01ZM206.71,76.23h.64c0-8.25.06-16.5,0-24.75-.2-22.61-18.43-40.83-40.79-40.83s-40.69,18.24-40.83,40.79c-.1,16.37-.09,32.75,0,49.12.12,20.82,16.4,38.6,36.87,40.42,21.41,1.91,40.93-12.49,43.88-33.72,1.41-10.16.24-20.68.24-31.04h0Z"/>
  <path class="cls-8" d="M0,204.75c2.47-9.76,4.76-19.58,7.58-29.23.53-1.8,3.04-3.79,4.94-4.16,1.37-.27,4.26,1.68,4.71,3.17,2.77,9.28,5.05,18.71,7.48,28.09.12.47.02.99.03,1.49-2.35.25-3.53-.73-4.18-3.1-1.84-6.71-1.95-6.68-9.02-6.68-.75,0-1.5.07-2.23,0-2.31-.26-3.38.94-3.96,3.02-.69,2.5-1.56,4.95-2.34,7.41H0ZM18.09,191.02c-1.37-5.09-2.53-9.66-3.86-14.17-.23-.78-1.19-1.35-1.82-2.02-.5.64-1.21,1.2-1.46,1.93-.75,2.24-1.36,4.53-1.94,6.83-.6,2.4-1.09,4.83-1.67,7.42h10.75Z"/>
  <path class="cls-10" d="M61.34,204.06c0-5.12-.09-10.23,0-15.35.11-6.35,5.8-9.91,11.43-6.89,2.12,1.14,3.47.89,5.38-.08,5.02-2.56,10.15-.18,10.89,5.5.75,5.77.55,11.67.76,17.51h-1.5c-.75-1.34-2.03-2.64-2.14-4.03-.31-3.7.14-7.46-.22-11.15-.17-1.74-1.1-4.04-2.44-4.9-3.15-2.03-6.21.33-6.36,4.78-.17,4.83-.05,9.67-.06,14.51-2.16.41-3.19-.32-3.21-2.69-.04-4.34-.06-8.71-.62-13-.19-1.49-1.7-3.45-3.06-3.95-1.16-.43-3.46.51-4.38,1.59-.99,1.17-1.23,3.2-1.33,4.88-.19,3.35-.17,6.72-.02,10.07.11,2.37-.61,3.57-3.12,3.19h0Z"/>
  <path class="cls-10" d="M223.74,204.75c-.38-.57-.82-1.11-1.14-1.71-.55-1.03-1.03-2.1-1.54-3.16,1.07-.03,2.16-.2,3.21-.05,2.3.32,4.73,1.48,6.82,1.02,1.95-.43,4.26-2.18,5.1-3.97,1.14-2.4-.19-4.99-2.67-6.27-1.97-1.02-4.18-1.59-6.28-2.35-4.81-1.74-7.83-6.2-6.93-10.22,1.04-4.64,5.57-7.68,10.87-6.91,2.5.37,4.9,1.42,7.38,2.17-.53,2.8-1.59,3.3-3.8,2.53-1.94-.67-4.3-1.4-6.08-.85-1.83.56-3.92,2.41-4.5,4.16-.38,1.15,1.4,3.48,2.76,4.63,1.35,1.14,3.36,1.54,5.11,2.16,8.83,3.09,10.66,9.94,4.52,16.91-.44.5-.58,1.27-.87,1.92h-11.97,0Z"/>
  <path class="cls-10" d="M98.77,204.75c-1.47-1.78-3.59-3.33-4.28-5.37-1.68-4.98,1.68-9.03,7.47-9.54,1.8-.16,3.63-.02,5.49-.02-.53-4.9-2.57-6.29-6.73-5.69-1.53.22-3.72,2.37-4.61-.52-.14-.45,2.66-2.43,4.26-2.69,5.36-.86,10.4,1.44,10.71,7.84.29,5.98,1.38,12.04-4.83,15.99,0,0-7.48,0-7.48,0ZM107.13,192.53c-2.47.36-4.92.28-6.95,1.17-1.26.55-2.76,2.7-2.57,3.89.22,1.39,1.93,3.13,3.37,3.64,4.99,1.77,7.53-1.55,6.15-8.7Z"/>
  <path class="cls-10" d="M135.44,204.75c-7.02-5.04-8.43-16.62-2.66-21.77,3.05-2.73,8.75-3.28,11.7-.49,1.49,1.41,2.68,4.11,2.5,6.09-.27,2.89-2.78,4.66-5.83,4.86-2.46.17-4.93.03-7.31.03-1.32,6.07,1.81,9,7.68,7.67,4.15-.94,4.54-.56,3.64,3.62h-9.73.01ZM132.3,190.47c3.58,0,5.95.24,8.23-.11,1.11-.17,2.81-1.4,2.87-2.24.07-1.15-.97-3.21-1.88-3.42-1.88-.44-4.28-.48-5.9.38-1.36.73-1.92,2.97-3.32,5.37v.02Z"/>
  <path class="cls-9" d="M169.86,204.75c-5.77-3.95-8.06-11.68-5.43-18.35,1.57-3.97,5.36-6.19,9.52-5.57,4.72.7,7.42,3.63,7.85,8.56.5,5.7.07,11.12-4.46,15.36h-7.48ZM178.13,192.78c0-1.12.05-2.24,0-3.36-.17-3.24-2.05-5.18-5.1-5.39-2.9-.2-5.11,1.5-5.41,4.49-.3,3.03-.38,6.18.14,9.16.56,3.15,4.04,4.56,7.01,3.36,3.92-1.59,3.33-5.06,3.37-8.25h0Z"/>
  <path class="cls-9" d="M286.6,204.75c-5.81-3.94-8.24-12.83-5.12-19.34,1.55-3.22,4.46-4.7,7.94-4.59,3.49.11,7.2,1.05,8.01,4.85.86,4.03,1.2,8.45.44,12.45-.47,2.46-3.43,4.44-5.28,6.63h-5.99ZM294.9,192.86c0-6.22-1.59-8.84-5.46-8.95-3.35-.09-5.71,3.42-5.78,8.6-.07,5.56,2.06,9.04,5.57,9.12,3.87.08,5.66-2.69,5.66-8.77h0Z"/>
  <path class="cls-10" d="M199.79,204.75c0-5.12-.02-10.23.04-15.34.04-3.11-1.34-5.18-4.43-5.4-2.94-.21-4.64,1.6-4.81,4.54-.24,4.09-.44,8.2-.4,12.3.02,2.35-.58,3.61-3.13,3.19,0-5-.08-9.99,0-14.99.08-4.41,2.89-7.84,6.56-8.24,4.76-.53,8.82,1.78,9.3,6.53.58,5.74-.04,11.6-.14,17.41h-2.99Z"/>
  <path class="cls-11" d="M249.93,204.75c-5.92-3.82-5.69-9.78-5.15-15.65.72-7.78,8.61-10.89,16.26-5.46-1.92.46-3.12,1.1-4.21.95-6.56-.91-8.44.63-8.47,7.23,0,1.37-.06,2.75.05,4.12.35,4.32,3.33,6.34,7.54,5.18,4.36-1.2,4.81-.76,3.71,3.62h-9.73Z"/>
  <path class="cls-9" d="M118.23,204.75c-4.12-8.65-1.54-17.86-2.12-26.8-.05-.72,1.15-1.52,1.78-2.28.6.78,1.4,1.49,1.74,2.37.34.87.21,1.92.31,3.14,1.23.09,2.35.02,3.38.3.79.21,1.46.87,2.18,1.33-.7.54-1.33,1.32-2.13,1.58-1.01.32-2.15.23-3.64.34,0,4.78-.2,9.37.15,13.92.08,1.02,2.29,2.88,3.1,2.68,3.46-.87,3.55,1.05,3.49,3.42h-8.24Z"/>
  <path class="cls-11" d="M53.88,204.75c-.76-1.08-2.15-2.13-2.19-3.23-.22-5.97-.17-11.95-.03-17.92.02-.91,1.05-1.79,1.61-2.69.67.98,1.9,1.94,1.93,2.94.2,6.97.15,13.94.18,20.91h-1.5Z"/>
  <path class="cls-6" d="M265.64,204.75c.04-.27.07-.55.11-.82,1.14-.02,2.27-.04,3.41-.05.08.29.15.58.23.88h-3.75Z"/>
  <path class="cls-5" d="M32.2,204.03c-.02.24-.03.48-.03.72h-2.99c.07-.3.14-.59.21-.89.93.06,1.87.11,2.81.17Z"/>
  <path class="cls-6" d="M306.05,204v.75h-2.99c.03-.28.07-.55.1-.83.96.03,1.93.05,2.89.07h0Z"/>
  <path class="cls-2" d="M5.55,140.55c1.51-5.7,2.83-10.73,4.17-15.77,8.21-30.89,16.41-61.78,24.64-92.66.74-2.77,1.55-5.54,2.52-8.23,3.13-8.71,10.08-13.69,18.94-13.7,9.16-.01,16.46,4.82,19.14,13.83,4.45,14.95,8.4,30.05,12.45,45.12,6.06,22.55,12.01,45.12,18.01,67.68.26.96.45,1.94.85,3.64-4.73,0-9.25.12-13.75-.14-.62-.04-1.36-1.89-1.66-3-2.77-10.24-5.55-20.49-8.11-30.79-.68-2.73-1.71-3.84-4.72-3.81-14.71.17-29.42.17-44.12,0-3.03-.04-4.03,1.1-4.71,3.82-2.51,10.05-5.4,20.01-7.83,30.08-.78,3.22-2.21,4.24-5.36,3.99-3.21-.26-6.46-.06-10.47-.06h.01ZM34.34,88.96h43.22c.04-.56.13-.83.07-1.05-5.03-18.94-10.03-37.89-15.13-56.81-.94-3.47-1.8-7.34-6.68-7.23-4.84.11-5.54,4.05-6.48,7.49-4.95,18.32-9.81,36.66-14.68,55-.22.81-.21,1.68-.32,2.6Z"/>
  <path class="cls-2" d="M302.77,22.15c-2.69,3.48-5.28,6.81-7.24,9.35-7.44-2.53-14.16-5.76-21.22-6.91-5.81-.95-12.37-.55-18,1.2-13.36,4.15-17.1,20.26-7.19,30.17,3.31,3.31,7.89,5.65,12.27,7.52,5.82,2.49,12.23,3.63,18.01,6.22,5.85,2.62,11.96,5.48,16.67,9.68,10.34,9.22,14.47,21.17,10.98,34.92-3.49,13.73-12.74,22.3-26.21,25.6-18.37,4.5-35.35.68-50.64-10.53-.6-.44-1.19-.89-2.07-1.55,3.11-3.62,5.93-6.91,8.98-10.46,1.11.79,2.08,1.49,3.07,2.17,11.16,7.7,23.4,10.47,36.62,7.29,9.32-2.25,15.37-8.22,16.82-17.94,1.42-9.52-2.62-16.94-10.39-22.05-3.79-2.5-8.25-4.08-12.55-5.69-5.37-2-11.15-3.06-16.27-5.53-5.42-2.62-11.01-5.67-15.26-9.83-16.86-16.49-11.34-43.85,10.67-52.24,18.37-7,35.79-3.31,51.94,7.37.29.19.46.56,1.01,1.24h0Z"/>
  <path class="cls-8" d="M32.2,204.03c-.94-.06-1.87-.11-2.81-.17.16-5.58.06-11.17.58-16.72.4-4.35,4.25-6.77,8.97-6.35,3.59.32,6.66,3.67,6.72,7.6.09,5.22,0,10.45,0,15.67-2.5.35-3.21-.84-3.11-3.21.16-3.6.09-7.2.02-10.81-.07-3.51-2.08-6.08-4.7-6.17-2.72-.09-4.86,2.63-4.99,6.2-.18,4.65-.46,9.3-.69,13.95h0Z"/>
  <path class="cls-12" d="M306.05,204c-.96-.02-1.93-.05-2.89-.07-.03-9.85-.1-19.7-.04-29.54,0-.85.88-1.7,1.35-2.55.73.65,2.11,1.3,2.1,1.95-.07,10.07-.31,20.14-.52,30.22h0Z"/>
  <path class="cls-10" d="M269.16,203.87c-1.14.02-2.27.04-3.41.05-.03-5-.21-9.99-.04-14.98.18-5.19,4.67-8.92,9.56-8.09.77.13,1.42,1.01,2.13,1.55-.76.55-1.5,1.51-2.3,1.57-4.22.31-5.7,1.73-5.78,6.05-.08,4.62-.11,9.24-.16,13.86h0Z"/>
  <path class="cls-7" d="M315.87,188.17c0,4.36.09,8.73-.07,13.08-.04.92-1.02,1.81-1.56,2.71-.49-.83-1.41-1.66-1.42-2.49-.1-9.1-.1-18.19,0-27.29,0-.79,1.02-1.56,1.56-2.34.49.83,1.39,1.65,1.41,2.5.14,4.61.07,9.22.07,13.83h.01Z"/>
  <path class="cls-4" d="M53.44,171.8c.91,1.65,1.86,2.62,1.81,3.54-.04.75-1.26,1.44-1.95,2.16-.78-.79-2.11-1.54-2.18-2.4-.07-.82,1.16-1.75,2.32-3.3Z"/>
  <path class="cls-1" d="M171.55,52.35c0,4.24.05,8.49-.02,12.73-.06,3.67-2.11,5.97-5.22,6.03-3.04.06-5.38-2.33-5.42-5.89-.08-8.61-.08-17.22,0-25.83.03-3.66,2.2-5.79,5.46-5.75,3.22.04,5.12,2.17,5.17,5.98.06,4.24,0,8.48,0,12.73h.02Z"/>
</svg>