<?xml version="1.0" encoding="utf-8"?>
<!-- Generator: Adobe Illustrator 28.1.0, SVG Export Plug-In . SVG Version: 6.00 Build 0)  -->
<svg version="1.1" id="Layer_1" xmlns="http://www.w3.org/2000/svg" xmlns:xlink="http://www.w3.org/1999/xlink" x="0px" y="0px"
	 viewBox="0 0 122.9 100.3" style="enable-background:new 0 0 122.9 100.3;" xml:space="preserve">
<style type="text/css">
	.st0{fill-rule:evenodd;clip-rule:evenodd;fill:#7F94E2;}
</style>
<g>
	<path class="st0" d="M102.8,7.1l2.6,3.4c0.7,0.9,0.5,2.2-0.4,2.9l-2.8,2.1c0.5,1.3,0.8,2.7,0.9,4.2l3.1,0.4
		c1.1,0.1,1.9,1.2,1.8,2.3l-0.6,4.2c-0.2,1.1-1.2,1.9-2.3,1.8l-3.4-0.5c-0.6,1.3-1.4,2.5-2.3,3.6l1.9,2.5c0.7,0.9,0.5,2.2-0.4,2.9
		l-3.4,2.6c-0.9,0.7-2.2,0.5-2.9-0.4l-2.1-2.8c-1.3,0.5-2.8,0.8-4.2,1L88,40.5c-0.2,1.1-1.2,1.9-2.3,1.8l-4.2-0.6
		c-1.1-0.2-1.9-1.2-1.8-2.3l0.5-3.4c-1.3-0.6-2.6-1.4-3.6-2.3L74,35.6c-0.9,0.7-2.2,0.5-2.9-0.4l-2.6-3.4c-0.7-0.9-0.5-2.2,0.4-2.9
		l2.8-2.1c-0.5-1.3-0.8-2.8-0.9-4.2l-3.1-0.4c-1.1-0.1-1.9-1.2-1.8-2.3l0.6-4.2c0.2-1.1,1.2-1.9,2.3-1.8l3.4,0.5
		c0.6-1.3,1.4-2.6,2.3-3.6l-1.9-2.5C71.8,7.3,72,6,72.9,5.3l3.4-2.6c0.9-0.7,2.2-0.5,2.9,0.4l2.1,2.8C82.6,5.4,84,5,85.5,4.9
		l0.4-3.1c0.2-1.1,1.2-1.9,2.3-1.8l4.2,0.6c1.1,0.2,1.9,1.2,1.8,2.3l-0.5,3.4c1.3,0.6,2.6,1.4,3.7,2.3l2.5-1.9
		C100.8,6,102.1,6.2,102.8,7.1L102.8,7.1L102.8,7.1z M29.7,67.1V50.6h8.5c1.6,0,2.8,0.1,3.6,0.4c0.8,0.3,1.5,0.8,2,1.5
		c0.5,0.7,0.8,1.6,0.8,2.7c0,0.9-0.2,1.7-0.6,2.4c-0.4,0.7-0.9,1.2-1.6,1.6c-0.4,0.3-1,0.5-1.8,0.7c0.6,0.2,1,0.4,1.3,0.6
		c0.2,0.1,0.5,0.4,0.8,0.9c0.3,0.4,0.6,0.8,0.7,1l2.5,4.8h-5.8l-2.7-5c-0.3-0.7-0.7-1.1-0.9-1.3c-0.4-0.2-0.8-0.4-1.2-0.4h-0.5v6.7
		L29.7,67.1L29.7,67.1z M47.7,95.8h-9.5l-1.4,4.5h-8.6l10.2-27.2h9.2l10.2,27.2H49L47.7,95.8L47.7,95.8z M45.9,90l-3-9.8l-3,9.8
		H45.9L45.9,90z M59.8,73.1h14c3.1,0,5.3,0.7,6.8,2.2c1.5,1.4,2.3,3.5,2.3,6.2c0,2.8-0.8,4.9-2.5,6.4c-1.7,1.6-4.2,2.3-7.6,2.3h-4.6
		v10.1h-8.4L59.8,73.1L59.8,73.1z M68.2,84.8h2.1c1.6,0,2.8-0.3,3.4-0.8c0.7-0.6,1-1.3,1-2.2c0-0.8-0.3-1.6-0.9-2.2
		s-1.7-0.9-3.2-0.9h-2.4L68.2,84.8L68.2,84.8z M86.3,73.1h8.4v27.2h-8.4V73.1L86.3,73.1z M34.8,57.3h2.2c0.2,0,0.7-0.1,1.3-0.2
		c0.3-0.1,0.6-0.2,0.8-0.5c0.2-0.3,0.3-0.6,0.3-1c0-0.5-0.2-1-0.5-1.2C38.6,54.1,38,54,37,54h-2.2V57.3L34.8,57.3z M46.9,50.6h13.6
		v3.5H52v2.6h7.9v3.4H52v3.2h8.8v3.7H46.9L46.9,50.6L46.9,50.6z M62,61.7l4.8-0.3c0.1,0.8,0.3,1.4,0.6,1.8c0.5,0.7,1.3,1,2.2,1
		c0.7,0,1.3-0.2,1.7-0.5s0.6-0.7,0.6-1.2c0-0.4-0.2-0.8-0.6-1.2c-0.4-0.3-1.2-0.7-2.6-1c-2.2-0.5-3.8-1.2-4.8-2s-1.4-1.9-1.4-3.2
		c0-0.8,0.2-1.7,0.7-2.4s1.2-1.3,2.2-1.8s2.3-0.6,4.1-0.6c2.1,0,3.7,0.4,4.8,1.2c1.1,0.8,1.8,2,2,3.8l-4.8,0.3
		c-0.1-0.8-0.4-1.3-0.8-1.6c-0.4-0.3-1-0.5-1.7-0.5c-0.6,0-1,0.1-1.3,0.4c-0.3,0.2-0.4,0.6-0.4,0.9c0,0.3,0.1,0.5,0.4,0.7
		c0.2,0.2,0.8,0.4,1.7,0.6c2.2,0.5,3.8,1,4.8,1.5c1,0.5,1.7,1.1,2.1,1.8c0.4,0.7,0.7,1.5,0.7,2.4c0,1.1-0.3,2-0.9,2.9
		c-0.6,0.9-1.4,1.6-2.4,2c-1.1,0.5-2.4,0.7-4,0.7c-2.8,0-4.8-0.5-5.8-1.6C62.7,64.7,62.1,63.3,62,61.7L62,61.7z M77.7,50.6h15.5v4.1
		H88v12.4h-5.1V54.7h-5.2V50.6L77.7,50.6z M60.5,11.5c-1.8-0.1-3.7-0.1-5.5,0.1c-5.6,0.5-11.1,2.6-15.6,6.1
		c-5.2,4.1-9.2,10.1-10.7,18.1l-0.5,2.5l-2.5,0.4c-2.5,0.4-4.6,1-6.6,1.8c-1.9,0.7-3.5,1.6-5,2.7c-1.2,0.8-2.2,1.8-3,2.8
		C8.5,49.1,7.3,53,7.3,57c0,4.1,1.4,8.2,3.8,11.5c0.9,1.2,2,2.4,3.2,3.4c1.2,1,2.6,1.8,4.1,2.5c0.9,0.4,1.8,0.7,2.8,0.9v7.5
		c-2-0.4-3.8-0.9-5.6-1.6c-2.3-0.9-4.3-2.2-6.1-3.6c-1.7-1.4-3.2-3-4.4-4.7C1.8,68.3,0,62.7,0,57.1c0-5.7,1.7-11.3,5.5-15.9
		c1.2-1.5,2.7-2.8,4.3-4c1.9-1.4,4.1-2.6,6.6-3.5c1.7-0.7,3.6-1.2,5.5-1.7c2.2-8.7,6.9-15.5,12.9-20.1c5.6-4.4,12.4-6.9,19.4-7.6
		c3.7-0.3,7.4-0.2,11,0.5c-0.1,0.3-0.2,0.7-0.2,1l0,0.1c-0.1,0.6-0.1,1.1-0.1,1.7c-0.8,0.3-1.5,0.7-2.1,1.2l0,0
		C62,9.4,61.1,10.4,60.5,11.5L60.5,11.5z M113.4,30.7c0.6,0.5,1.1,1,1.6,1.6c1.1,1.2,2.1,2.5,3,3.9c3.2,4.9,4.8,11.5,4.8,17.9
		c-0.1,6.3-1.8,12.6-5.2,17.2c-2.3,3-5.2,5.5-8.7,7.4c-2.4,1.3-5.1,2.4-8,3.3v-7.8c1.6-0.6,3.1-1.2,4.4-2c2.6-1.5,4.8-3.3,6.4-5.4
		c2.5-3.3,3.7-8,3.8-12.9c0.1-5.1-1.2-10.2-3.6-13.9c-0.7-1.1-1.4-2-2.2-2.9c-0.3-0.3-0.6-0.6-0.9-0.9c0.1-0.5,0.1-1,0-1.5
		c0.8-0.3,1.5-0.7,2.1-1.2l0,0C112,32.8,112.8,31.8,113.4,30.7L113.4,30.7z M88.1,12.8c4.6,0.6,7.8,4.9,7.2,9.5
		c-0.6,4.6-4.9,7.8-9.5,7.2c-4.6-0.6-7.8-4.9-7.2-9.5C79.2,15.4,83.5,12.2,88.1,12.8L88.1,12.8L88.1,12.8z"/>
</g>
</svg>
