<?xml version="1.0" encoding="UTF-8"?>
<svg id="Layer_1" data-name="Layer 1" xmlns="http://www.w3.org/2000/svg" viewBox="0 0 265.78 132.01">
  <defs>
    <style>
      .cls-1 {
        fill: #5198d6;
      }

      .cls-1, .cls-2 {
        stroke-width: 0px;
      }

      .cls-2 {
        fill: #5298d6;
      }
    </style>
  </defs>
  <path class="cls-1" d="M192.53,115.13c-5.2,4.06-10.08,8.39-15.46,11.95-9.64,6.38-21.61,5.83-30.15-.79-1.98-1.54-4.04-2.98-6.33-4.67-2.74,1.54-6.57,4.1-10.72,5.92-3.77,1.65-7.82,2.91-11.88,3.61-6.05,1.04-11.54-.1-14.55-6.43-3.86,1.67-7.51,3.46-11.31,4.83-2.55.92-5.28,1.45-7.98,1.83-3.75.53-6.65-1.23-8.79-4.17-1.8-2.48-3.37-5.12-5.03-7.67-4.26,2.04-8.5,4.3-12.93,6.12-8.89,3.66-18.07,6.46-27.8,6.34-3.85-.05-7.83-.58-11.49-1.73-5.45-1.7-8.47-5.91-9.18-11.45H3.77c-2.35-.02-3.45-1.35-3.71-3.55-.42-3.59,1.48-6.2,4.08-8.1,10.58-7.69,17.99-18.18,25.69-28.44,2.55-3.4,5.1-6.8,7.82-10.07,3.34-4.02,7.65-5.71,12.9-4.85,5.23.86,7.34,5.13,4.47,9.6-1.65,2.58-3.63,4.99-5.72,7.24-1.6,1.72-2.04,3.53-1.68,5.7.01.08.03.16.05.25,1.1,4.44,2.61,8.83,3.17,13.33.55,4.42.12,8.97.12,13.52,4.83-2.39,9.94-4.86,14.98-7.48.44-.23.58-1.44.53-2.18-.21-2.99-.69-5.96-.82-8.95-.47-11.42,1.44-22.58,4.03-33.62,3.26-13.91,7.88-27.34,14.87-39.87,3.84-6.88,8.23-13.33,14.79-17.99,2.78-1.98,5.86-3.17,9.26-3.35,4.07-.22,7.57,2.51,8.91,7.03,1.73,5.81,1.27,11.72.34,17.58-2.61,16.4-10.11,30.92-17.76,45.35-4.29,8.09-8.88,16.03-12.96,24.23-2.61,5.26-4.22,10.87-2.1,16.87,1.28,3.62,2.39,4.56,5.86,3.01,4.15-1.86,8.03-4.34,11.97-6.64.45-.26.64-1.09.8-1.69,2.96-11.52,5.89-23.05,8.83-34.57,1.16-4.54,4.94-5.78,8.78-6.75,1.57-.39,3.31-.42,4.92-.21,3.13.41,4.3,1.9,3.58,4.97-1.39,5.91-3,11.76-4.65,17.6-2.27,8.01-4.8,15.95-5.07,24.37-.04,1.16-.03,2.35.17,3.49.6,3.42,2.61,4.84,5.69,3.27,3.9-1.98,7.48-4.61,11.08-7.12.51-.35.59-1.65.5-2.47-1.31-11.52,2.05-22,7.73-31.7,4.96-8.47,12.22-13.88,22.66-13.23,7,.44,12.57,3.44,15.21,10.26,2.71,7,.29,13.08-4.26,18.47-1.8,2.14-5.66,2.73-7.85,1.58-1.9-1-2.63-3.77-2.04-6.9.47-2.52.9-5.07,1-7.62.08-1.93-.84-2.96-3.19-2.54-3.16.56-5.41,2.19-6.85,4.87-4.52,8.46-6.62,17.44-4.87,26.99,1.54,8.42,8.2,11.96,16.07,8.55,7.38-3.2,13.28-8.48,18.85-14.18,2.07-2.12,3.09-4.27,3.29-7.37,1.02-15.53,2.5-31.03,5.76-46.29,2.48-11.6,5.64-22.97,11.72-33.29,3.8-6.45,8.41-12.14,16.01-14.21,2.58-.7,5.48-.96,8.11-.59,4.43.63,7.48,4.28,8.27,8.89,1.34,7.82.14,15.47-1.98,22.95-5.68,20.07-13.73,39.08-25.69,56.3-.66.95-.74,2.29-1.09,3.45.92-.7,2.01-1.25,2.72-2.11,5.26-6.46,10.51-12.93,15.63-19.5,3.63-4.66,8.36-7.03,14.15-7.27,6.02-.25,10.18,3.66,10.76,9.73.35,3.61-.23,7.05-2.15,10.08-2.76,4.35-5.87,8.47-8.68,12.78-2.67,4.09-5.39,8.18-7.61,12.52-1.25,2.42-1.6,5.44.87,7.63,1.66,1.48,5.45.87,8.04-1.49,3.31-3.02,6.34-6.36,9.44-9.61,1.37-1.44,2.61-3,4.37-5.03.78,2.87,1.46,5.26,2.08,7.66.5,1.93.76,3.94,1.42,5.81.79,2.24.39,3.97-1.3,5.61-9.03,8.75-19.39,13.7-32.28,11.22-5.93-1.14-9.41-5.58-9.76-11.63-.46-8.06,2.97-14.74,7.26-21.08,1.76-2.6,4.09-4.81,6.16-7.19.49-.56,1.34-1.11,1.38-1.71.09-1.32-.24-2.67-.4-4.01-1.16.15-2.73-.12-3.39.53-1.86,1.84-3.62,3.91-4.94,6.17-6.66,11.44-13.14,22.99-19.75,34.46-1.66,2.88-3.67,5.35-7.57,5.18-3.58-.15-5.88-1.48-7.01-4.88-.68-2.03-.98-4.2-1.22-6.34-.19-1.79-.04-3.61-.04-5.13h0ZM83.5,75.72c.54-.8.8-1.12,1-1.48,6.86-12.49,13.08-25.28,17.13-38.97,1.45-4.89,1.99-10.06,2.8-15.13.11-.71-.45-2.01-.99-2.21-.64-.23-1.84.22-2.39.77-1.46,1.46-2.95,2.98-4,4.74-8.34,14.01-11.82,29.5-13.51,45.5-.21,2.02-.03,4.09-.03,6.78h0ZM208.37,81.35c.22.02.43.03.65.05.17-.37.38-.72.51-1.1,5.81-16.63,11.65-33.26,17.38-49.92,1.21-3.52,2.08-7.18,2.89-10.82.2-.89-.19-2.41-.84-2.85s-2.2-.24-2.95.27c-1.33.91-2.78,2.08-3.44,3.49-2.5,5.33-5.48,10.61-6.85,16.26-2.57,10.64-4.24,21.5-6.09,32.3-.69,4.06-.85,8.21-1.25,12.32h0ZM34.9,94.71c-.3-.06-.59-.11-.89-.17-3.03,3.18-6.05,6.38-9.09,9.55-3.09,3.22-6.22,6.41-9.39,9.67,2.3,1.92,4.24,3.9,6.5,5.37,5.05,3.29,11.61.77,12.84-4.93.5-2.31.36-4.78.41-7.17.04-1.82-.05-3.65-.11-5.47-.08-2.28-.18-4.57-.27-6.85Z"/>
  <path class="cls-2" d="M127.95,55.44c-5.04.09-9.08-.85-11.2-5.35-1.95-4.15-1.38-8.15,1.43-11.72,4.14-5.26,14.37-6.27,19.53-2.04,4.3,3.51,3.94,11.65-.69,15.8-2.74,2.46-5.97,3.52-9.08,3.31h.01Z"/>
</svg>