<svg height="73" viewBox="0 0 73 73" width="73" xmlns="http://www.w3.org/2000/svg"><g fill="none" fill-rule="nonzero"><rect fill="#fff" height="71" rx="14" stroke="#2c3b73" stroke-width="2" width="71" x="1" y="1"/><g transform="translate(13 13)"><path d="m46.7402812 46.7402812c-1.6313437 1.6594688-4.3030312 1.6594688-5.9625 0l-7.6219687-7.6219687.16875-5.79375 5.79375-.16875 7.6219687 7.6219687c1.6594688 1.6592813 1.6594688 4.3311563 0 5.9625z" fill="#47568c"/><path d="m46.7402812 46.7402812c-1.6313437 1.6594688-4.3030312 1.6594688-5.9625 0l-7.6219687-7.6219687.16875-5.79375z" fill="#2c3b73"/><path d="m39.1183125 33.1558125-5.9625 5.9625-6.1030313-6.1030313c-.534375-.534375-.534375-1.434375 0-1.96875l3.9936563-3.9936562c.534375-.534375 1.434375-.534375 1.96875 0z" fill="#fdbf00"/><path d="m36.1370625 36.1370625-2.98125 2.98125-6.1030313-6.1030313c-.534375-.534375-.534375-1.434375 0-1.96875l1.9969688-1.9969687z" fill="#ff9100"/><path d="m31.18725 5.3683125c-7.1438438-7.171875-18.675-7.14365625-25.8189375 0-7.171875 7.1438438-7.14365625 18.675 0 25.81875 7.1438437 7.1719688 18.675 7.1438438 25.8189375 0 7.1717812-7.1436562 7.1436562-18.6749062 0-25.81875z" fill="#47568c"/><path d="m31.18725 31.1870625c-7.1438438 7.1438438-18.675 7.1719688-25.8189375 0-7.14365625-7.1436562-7.171875-18.6749062 0-25.81875z" fill="#2c3b73"/><path d="m29.2184062 29.2184062c-6.0469687 6.0467813-15.834375 6.0467813-21.8813437 0-6.04678125-6.0469687-6.04678125-15.834375 0-21.8813437 6.0469687-6.04696875 15.834375-6.04696875 21.8813437 0 6.0467813 6.0469687 6.0467813 15.8344687 0 21.8813437z" fill="#edf5ff"/><path d="m29.2184062 29.2184062c-6.0469687 6.0467813-15.834375 6.0467813-21.8813437 0-6.04678125-6.0469687-6.04678125-15.834375 0-21.8813437z" fill="#d7e9ff"/><path d="m28.1215313 14.3120625v-4.47178125c0-.78759375-.6186563-1.40625-1.40625-1.40625h-5.625c-.7875938 0-1.40625.61865625-1.40625 1.40625 0 .78740625-.6186563 1.40625005-1.40625 1.40625005-.7875938 0-1.40625-.6188438-1.40625-1.40625005 0-.78759375-.6186563-1.40625-1.40625-1.40625h-5.62500005c-.39375 0-.73125.16875-1.0125.39375-.22509375.28115625-.39375.61865625-.39375 1.0125v4.47178125c-1.63134375.5625-2.8125 2.1375-2.8125 3.9657188 0 1.8280312 1.18115625 3.4030312 2.8125 3.9655312v4.4719688c0 .7874062.61865625 1.40625 1.40625 1.40625h5.62500005c.7875937 0 1.40625-.6188438 1.40625-1.40625 0-.7875938.6186562-1.40625 1.40625-1.40625.7875937 0 1.40625.6186562 1.40625 1.40625 0 .7874062.6186562 1.40625 1.40625 1.40625h5.625c.39375 0 .73125-.16875 1.0125-.39375.2250937-.2811563.39375-.6186563.39375-1.0125v-4.4719688c1.6313437-.5625 2.8125-2.1375 2.8125-3.9655312 0-1.8282188-1.18125-3.4032188-2.8125-3.9657188z" fill="#979fef"/><path d="m8.82778125 8.82778125 18.89990625 18.89990625c-.2811563.2250938-.6186563.39375-1.0125.39375h-5.625c-.7875938 0-1.40625-.6188437-1.40625-1.40625 0-.7875937-.6186563-1.40625-1.40625-1.40625-.7875938 0-1.40625.6186563-1.40625 1.40625 0 .7874063-.6186563 1.40625-1.40625 1.40625h-5.625c-.78759375 0-1.40625-.6188437-1.40625-1.40625v-4.4719687c-1.63134375-.5625-2.8125-2.1375-2.8125-3.9655313 0-1.8282187 1.18115625-3.4032187 2.8125-3.9657187v-4.4717813c.00009375-.39365625.16884375-.73115625.39384375-1.01240625z" fill="#737ee6"/></g></g></svg>