<svg width="35" height="35" viewBox="0 0 35 35" fill="none" xmlns="http://www.w3.org/2000/svg">
<circle cx="17.5" cy="17.5" r="17" fill="white" fill-opacity="0.05" stroke="#D8D8D8"/>
<path d="M18.1683 11.0008C18.6426 10.999 19.117 11.0037 19.5911 11.0151L19.7172 11.0196C19.8628 11.0248 20.0065 11.0313 20.18 11.0391C20.8716 11.0716 21.3435 11.1808 21.7575 11.3414C22.1865 11.5065 22.5479 11.7301 22.9093 12.0915C23.2397 12.4162 23.4954 12.809 23.6587 13.2426C23.8192 13.6566 23.9284 14.1291 23.9609 14.8207C23.9687 14.9936 23.9752 15.1379 23.9804 15.2835L23.9843 15.4096C23.9959 15.8836 24.0009 16.3577 23.9993 16.8318L23.9999 17.3166V18.1681C24.0015 18.6424 23.9966 19.1167 23.985 19.5909L23.9811 19.717C23.9759 19.8626 23.9694 20.0062 23.9616 20.1798C23.9291 20.8714 23.8186 21.3432 23.6587 21.7573C23.496 22.1913 23.2402 22.5844 22.9093 22.909C22.5843 23.2394 22.1912 23.4952 21.7575 23.6585C21.3435 23.819 20.8716 23.9282 20.18 23.9607C20.0065 23.9685 19.8628 23.975 19.7172 23.9802L19.5911 23.9841C19.117 23.9957 18.6426 24.0006 18.1683 23.9991L17.6834 23.9997H16.8326C16.3583 24.0013 15.884 23.9963 15.4098 23.9848L15.2837 23.9809C15.1294 23.9753 14.9752 23.9688 14.8209 23.9614C14.1294 23.9289 13.6575 23.8184 13.2428 23.6585C12.8091 23.4955 12.4162 23.2398 12.0917 22.909C11.7609 22.5842 11.5049 22.1912 11.3416 21.7573C11.1811 21.3432 11.0719 20.8714 11.0394 20.1798C11.0321 20.0256 11.0256 19.8713 11.0199 19.717L11.0166 19.5909C11.0046 19.1167 10.9992 18.6424 11.0004 18.1681V16.8318C10.9986 16.3577 11.0033 15.8836 11.0147 15.4096L11.0192 15.2835C11.0244 15.1379 11.0309 14.9936 11.0387 14.8207C11.0712 14.1285 11.1804 13.6573 11.341 13.2426C11.5044 12.8088 11.7608 12.4161 12.0923 12.0921C12.4166 11.7611 12.8092 11.5049 13.2428 11.3414C13.6575 11.1808 14.1287 11.0716 14.8209 11.0391L15.2837 11.0196L15.4098 11.0164C15.8838 11.0044 16.3579 10.999 16.832 11.0001L18.1683 11.0008ZM17.5002 14.2507C17.0695 14.2446 16.642 14.3242 16.2424 14.4847C15.8428 14.6453 15.4791 14.8837 15.1725 15.186C14.8658 15.4884 14.6223 15.8487 14.4561 16.246C14.2899 16.6432 14.2043 17.0696 14.2043 17.5003C14.2043 17.9309 14.2899 18.3573 14.4561 18.7545C14.6223 19.1518 14.8658 19.5121 15.1725 19.8145C15.4791 20.1168 15.8428 20.3552 16.2424 20.5158C16.642 20.6764 17.0695 20.7559 17.5002 20.7498C18.3621 20.7498 19.1887 20.4074 19.7982 19.7979C20.4076 19.1885 20.75 18.3619 20.75 17.4999C20.75 16.638 20.4076 15.8114 19.7982 15.2019C19.1887 14.5924 18.3621 14.2507 17.5002 14.2507ZM17.5002 15.5506C17.7592 15.5459 18.0166 15.5928 18.2572 15.6886C18.4979 15.7844 18.7171 15.9272 18.902 16.1087C19.0869 16.2902 19.2338 16.5067 19.334 16.7455C19.4343 16.9844 19.486 17.2409 19.486 17.4999C19.4861 17.759 19.4345 18.0155 19.3343 18.2544C19.2341 18.4933 19.0873 18.7098 18.9025 18.8914C18.7177 19.0729 18.4985 19.2158 18.2578 19.3117C18.0172 19.4076 17.7598 19.4545 17.5008 19.4499C16.9836 19.4499 16.4877 19.2444 16.122 18.8787C15.7563 18.5131 15.5509 18.0171 15.5509 17.4999C15.5509 16.9828 15.7563 16.4868 16.122 16.1211C16.4877 15.7554 16.9836 15.55 17.5008 15.55L17.5002 15.5506ZM20.9125 13.2757C20.7029 13.2841 20.5045 13.3733 20.3592 13.5246C20.2138 13.676 20.1326 13.8777 20.1326 14.0875C20.1326 14.2974 20.2138 14.4991 20.3592 14.6504C20.5045 14.8018 20.7029 14.891 20.9125 14.8994C21.128 14.8994 21.3347 14.8138 21.487 14.6614C21.6394 14.509 21.725 14.3024 21.725 14.0869C21.725 13.8714 21.6394 13.6648 21.487 13.5124C21.3347 13.36 21.128 13.2744 20.9125 13.2744V13.2757Z" fill="#00FF38"/>
</svg>
