<svg width="35" height="35" viewBox="0 0 35 35" fill="none" xmlns="http://www.w3.org/2000/svg">
<circle cx="17.5" cy="17.5" r="17" fill="#00FF38" stroke="#00FF38"/>
<path d="M14.3375 13.125C14.3373 13.4565 14.2055 13.7744 13.9709 14.0087C13.7364 14.243 13.4184 14.3746 13.0869 14.3744C12.7553 14.3742 12.4375 14.2424 12.2032 14.0078C11.9689 13.7733 11.8373 13.4553 11.8375 13.1238C11.8377 12.7922 11.9695 12.4744 12.2041 12.2401C12.4386 12.0058 12.7566 11.8742 13.0881 11.8744C13.4196 11.8746 13.7375 12.0064 13.9718 12.2409C14.2061 12.4755 14.3377 12.7935 14.3375 13.125ZM14.375 15.3H11.875V23.125H14.375V15.3ZM18.325 15.3H15.8375V23.125H18.3V19.0188C18.3 16.7313 21.2812 16.5188 21.2812 19.0188V23.125H23.75V18.1688C23.75 14.3125 19.3375 14.4563 18.3 16.35L18.325 15.3Z" fill="black"/>
</svg>
