<svg width="1920" height="607" viewBox="0 0 1920 607" fill="none" xmlns="http://www.w3.org/2000/svg">
<line x1="0.5" y1="-2.18557e-08" x2="0.500027" y2="607" stroke="white" stroke-opacity="0.05"/>
<line x1="101.5" y1="-2.18557e-08" x2="101.5" y2="607" stroke="white" stroke-opacity="0.05"/>
<line x1="202.5" y1="-2.18557e-08" x2="202.5" y2="607" stroke="white" stroke-opacity="0.05"/>
<line x1="303.5" y1="-2.18557e-08" x2="303.5" y2="607" stroke="white" stroke-opacity="0.05"/>
<line x1="404.5" y1="-2.18557e-08" x2="404.5" y2="607" stroke="white" stroke-opacity="0.05"/>
<line x1="505.5" y1="-2.18557e-08" x2="505.5" y2="607" stroke="white" stroke-opacity="0.05"/>
<line x1="606.5" y1="-2.18557e-08" x2="606.5" y2="607" stroke="white" stroke-opacity="0.05"/>
<line x1="707.5" y1="-2.18557e-08" x2="707.5" y2="607" stroke="white" stroke-opacity="0.05"/>
<line x1="808.5" y1="-2.18557e-08" x2="808.5" y2="607" stroke="white" stroke-opacity="0.05"/>
<line x1="909.5" y1="-2.18557e-08" x2="909.5" y2="607" stroke="white" stroke-opacity="0.05"/>
<line x1="1010.5" y1="-2.18557e-08" x2="1010.5" y2="607" stroke="white" stroke-opacity="0.05"/>
<line x1="1111.5" y1="-2.18557e-08" x2="1111.5" y2="607" stroke="white" stroke-opacity="0.05"/>
<line x1="1212.5" y1="-2.18557e-08" x2="1212.5" y2="607" stroke="white" stroke-opacity="0.05"/>
<line x1="1313.5" y1="-2.18557e-08" x2="1313.5" y2="607" stroke="white" stroke-opacity="0.05"/>
<line x1="1414.5" y1="-2.18557e-08" x2="1414.5" y2="607" stroke="white" stroke-opacity="0.05"/>
<line x1="1515.5" y1="-2.18557e-08" x2="1515.5" y2="607" stroke="white" stroke-opacity="0.05"/>
<line x1="1616.5" y1="-2.18557e-08" x2="1616.5" y2="607" stroke="white" stroke-opacity="0.05"/>
<line x1="1717.5" y1="-2.18557e-08" x2="1717.5" y2="607" stroke="white" stroke-opacity="0.05"/>
<line x1="1818.5" y1="-2.18557e-08" x2="1818.5" y2="607" stroke="white" stroke-opacity="0.05"/>
<line x1="1919.5" y1="-2.18557e-08" x2="1919.5" y2="607" stroke="white" stroke-opacity="0.05"/>
<line x1="1920" y1="0.5" y2="0.5" stroke="white" stroke-opacity="0.05"/>
<line x1="1920" y1="101.5" y2="101.5" stroke="white" stroke-opacity="0.05"/>
<line x1="1920" y1="202.5" y2="202.5" stroke="white" stroke-opacity="0.05"/>
<line x1="1920" y1="303.5" y2="303.5" stroke="white" stroke-opacity="0.05"/>
<line x1="1920" y1="404.5" y2="404.5" stroke="white" stroke-opacity="0.05"/>
<line x1="1920" y1="505.5" y2="505.5" stroke="white" stroke-opacity="0.05"/>
<line x1="1920" y1="606.5" y2="606.5" stroke="white" stroke-opacity="0.05"/>
</svg>
