<svg width="1681" height="697" viewBox="0 0 1681 697" fill="none" xmlns="http://www.w3.org/2000/svg">
<path d="M1559.97 687.617C1559.97 690.796 1559.97 693.536 1559.97 696.617C1556.62 696.617 1553.43 696.617 1549.97 696.617C1549.97 693.633 1549.97 690.796 1549.97 687.617C1553.32 687.617 1556.62 687.617 1559.97 687.617Z" fill="white"/>
<path d="M1559.97 687.617C1559.97 690.796 1559.97 693.536 1559.97 696.617C1556.62 696.617 1553.43 696.617 1549.97 696.617C1549.97 693.633 1549.97 690.796 1549.97 687.617C1553.32 687.617 1556.62 687.617 1559.97 687.617Z" fill="white"/>
<path d="M1559.97 687.617C1559.97 690.796 1559.97 693.536 1559.97 696.617C1556.62 696.617 1553.43 696.617 1549.97 696.617C1549.97 693.633 1549.97 690.796 1549.97 687.617C1553.32 687.617 1556.62 687.617 1559.97 687.617Z" fill="white"/>
<path d="M626 32.617C626 30.986 626 29.5808 626 28C627.665 28 629.253 28 630.97 28C630.97 29.5306 630.97 30.986 630.97 32.617C629.305 32.617 627.665 32.617 626 32.617Z" fill="white" fill-opacity="0.18"/>
<path d="M626 32.617C626 30.986 626 29.5808 626 28C627.665 28 629.253 28 630.97 28C630.97 29.5306 630.97 30.986 630.97 32.617C629.305 32.617 627.665 32.617 626 32.617Z" fill="white" fill-opacity="0.18"/>
<path d="M626 32.617C626 30.986 626 29.5808 626 28C627.665 28 629.253 28 630.97 28C630.97 29.5306 630.97 30.986 630.97 32.617C629.305 32.617 627.665 32.617 626 32.617Z" fill="white" fill-opacity="0.18"/>
<path d="M257 9C257 5.82065 257 3.08152 257 -8.72531e-07C260.351 -5.80165e-07 263.545 -3.01503e-07 267 0C267 2.9837 267 5.82065 267 9C263.649 9 260.351 9 257 9Z" fill="white" fill-opacity="0.18"/>
<path d="M257 9C257 5.82065 257 3.08152 257 -8.72531e-07C260.351 -5.80165e-07 263.545 -3.01503e-07 267 0C267 2.9837 267 5.82065 267 9C263.649 9 260.351 9 257 9Z" fill="white" fill-opacity="0.18"/>
<path d="M257 9C257 5.82065 257 3.08152 257 -8.72531e-07C260.351 -5.80165e-07 263.545 -3.01503e-07 267 0C267 2.9837 267 5.82065 267 9C263.649 9 260.351 9 257 9Z" fill="white"/>
<path d="M146 210C146 206.821 146 204.082 146 201C149.351 201 152.545 201 156 201C156 203.984 156 206.821 156 210C152.649 210 149.351 210 146 210Z" fill="white" fill-opacity="0.18"/>
<path d="M146 210C146 206.821 146 204.082 146 201C149.351 201 152.545 201 156 201C156 203.984 156 206.821 156 210C152.649 210 149.351 210 146 210Z" fill="white" fill-opacity="0.18"/>
<path d="M146 210C146 206.821 146 204.082 146 201C149.351 201 152.545 201 156 201C156 203.984 156 206.821 156 210C152.649 210 149.351 210 146 210Z" fill="white"/>
<path d="M1472.97 357C1472.97 358.631 1472.97 360.036 1472.97 361.617C1471.3 361.617 1469.72 361.617 1468 361.617C1468 360.086 1468 358.631 1468 357C1469.67 357 1471.3 357 1472.97 357Z" fill="white" fill-opacity="0.18"/>
<path d="M1472.97 357C1472.97 358.631 1472.97 360.036 1472.97 361.617C1471.3 361.617 1469.72 361.617 1468 361.617C1468 360.086 1468 358.631 1468 357C1469.67 357 1471.3 357 1472.97 357Z" fill="white" fill-opacity="0.18"/>
<path d="M1472.97 357C1472.97 358.631 1472.97 360.036 1472.97 361.617C1471.3 361.617 1469.72 361.617 1468 361.617C1468 360.086 1468 358.631 1468 357C1469.67 357 1471.3 357 1472.97 357Z" fill="white"/>
<path d="M1443.97 2.76134e-05C1443.97 1.63105 1443.97 3.03623 1443.97 4.61707C1442.3 4.61707 1440.72 4.61707 1439 4.61707C1439 3.08642 1439 1.63105 1439 2.71797e-05C1440.67 2.7325e-05 1442.3 2.74681e-05 1443.97 2.76134e-05Z" fill="white"/>
<path d="M1443.97 2.76134e-05C1443.97 1.63105 1443.97 3.03623 1443.97 4.61707C1442.3 4.61707 1440.72 4.61707 1439 4.61707C1439 3.08642 1439 1.63105 1439 2.71797e-05C1440.67 2.7325e-05 1442.3 2.74681e-05 1443.97 2.76134e-05Z" fill="white"/>
<path d="M1443.97 2.76134e-05C1443.97 1.63105 1443.97 3.03623 1443.97 4.61707C1442.3 4.61707 1440.72 4.61707 1439 4.61707C1439 3.08642 1439 1.63105 1439 2.71797e-05C1440.67 2.7325e-05 1442.3 2.74681e-05 1443.97 2.76134e-05Z" fill="white"/>
<path d="M1169.97 29.6171C1169.97 32.7964 1169.97 35.5355 1169.97 38.6171C1166.62 38.6171 1163.43 38.6171 1159.97 38.6171C1159.97 35.6334 1159.97 32.7964 1159.97 29.6171C1163.32 29.6171 1166.62 29.6171 1169.97 29.6171Z" fill="white"/>
<path d="M1169.97 29.6171C1169.97 32.7964 1169.97 35.5355 1169.97 38.6171C1166.62 38.6171 1163.43 38.6171 1159.97 38.6171C1159.97 35.6334 1159.97 32.7964 1159.97 29.6171C1163.32 29.6171 1166.62 29.6171 1169.97 29.6171Z" fill="white"/>
<path d="M1169.97 29.6171C1169.97 32.7964 1169.97 35.5355 1169.97 38.6171C1166.62 38.6171 1163.43 38.6171 1159.97 38.6171C1159.97 35.6334 1159.97 32.7964 1159.97 29.6171C1163.32 29.6171 1166.62 29.6171 1169.97 29.6171Z" fill="white"/>
<path d="M1680.97 296.617C1680.97 299.796 1680.97 302.536 1680.97 305.617C1677.62 305.617 1674.43 305.617 1670.97 305.617C1670.97 302.633 1670.97 299.796 1670.97 296.617C1674.32 296.617 1677.62 296.617 1680.97 296.617Z" fill="white" fill-opacity="0.18"/>
<path d="M1680.97 296.617C1680.97 299.796 1680.97 302.536 1680.97 305.617C1677.62 305.617 1674.43 305.617 1670.97 305.617C1670.97 302.633 1670.97 299.796 1670.97 296.617C1674.32 296.617 1677.62 296.617 1680.97 296.617Z" fill="white" fill-opacity="0.18"/>
<path d="M1680.97 296.617C1680.97 299.796 1680.97 302.536 1680.97 305.617C1677.62 305.617 1674.43 305.617 1670.97 305.617C1670.97 302.633 1670.97 299.796 1670.97 296.617C1674.32 296.617 1677.62 296.617 1680.97 296.617Z" fill="white"/>
<path d="M242.97 477C242.97 478.631 242.97 480.036 242.97 481.617C241.305 481.617 239.717 481.617 238 481.617C238 480.086 238 478.631 238 477C239.665 477 241.305 477 242.97 477Z" fill="white" fill-opacity="0.18"/>
<path d="M242.97 477C242.97 478.631 242.97 480.036 242.97 481.617C241.305 481.617 239.717 481.617 238 481.617C238 480.086 238 478.631 238 477C239.665 477 241.305 477 242.97 477Z" fill="white" fill-opacity="0.18"/>
<path d="M242.97 477C242.97 478.631 242.97 480.036 242.97 481.617C241.305 481.617 239.717 481.617 238 481.617C238 480.086 238 478.631 238 477C239.665 477 241.305 477 242.97 477Z" fill="white"/>
<path d="M450.97 416.617C450.97 419.796 450.97 422.536 450.97 425.617C447.619 425.617 444.425 425.617 440.97 425.617C440.97 422.633 440.97 419.796 440.97 416.617C444.321 416.617 447.619 416.617 450.97 416.617Z" fill="white" fill-opacity="0.18"/>
<path d="M450.97 416.617C450.97 419.796 450.97 422.536 450.97 425.617C447.619 425.617 444.425 425.617 440.97 425.617C440.97 422.633 440.97 419.796 440.97 416.617C444.321 416.617 447.619 416.617 450.97 416.617Z" fill="white" fill-opacity="0.18"/>
<path d="M450.97 416.617C450.97 419.796 450.97 422.536 450.97 425.617C447.619 425.617 444.425 425.617 440.97 425.617C440.97 422.633 440.97 419.796 440.97 416.617C444.321 416.617 447.619 416.617 450.97 416.617Z" fill="white"/>
<path d="M10.0001 565C10.0001 568.179 10.0001 570.918 10.0001 574C6.64934 574 3.45562 574 0.00012207 574C0.000122331 571.016 0.000122578 568.179 0.000122856 565C3.35091 565 6.64934 565 10.0001 565Z" fill="white" fill-opacity="0.18"/>
<path d="M10.0001 565C10.0001 568.179 10.0001 570.918 10.0001 574C6.64934 574 3.45562 574 0.00012207 574C0.000122331 571.016 0.000122578 568.179 0.000122856 565C3.35091 565 6.64934 565 10.0001 565Z" fill="white" fill-opacity="0.18"/>
<path d="M10.0001 565C10.0001 568.179 10.0001 570.918 10.0001 574C6.64934 574 3.45562 574 0.00012207 574C0.000122331 571.016 0.000122578 568.179 0.000122856 565C3.35091 565 6.64934 565 10.0001 565Z" fill="white"/>
</svg>
