<svg width="90" height="55" viewBox="0 0 90 55" fill="none" xmlns="http://www.w3.org/2000/svg">
<path d="M29.3171 19.6289C29.3171 13.9877 29.3171 9.12764 29.3171 3.66003C35.0768 3.66003 40.5666 3.66003 46.5063 3.66003C46.5063 8.95407 46.5063 13.9877 46.5063 19.6289C40.7465 19.6289 35.0768 19.6289 29.3171 19.6289Z" fill="#00FF38"/>
<path d="M24.2862 27.5567C24.2862 21.9155 24.2862 17.0554 24.2862 11.5878C30.0459 11.5878 35.5357 11.5878 41.4754 11.5878C41.4754 16.8818 41.4754 21.9155 41.4754 27.5567C35.7157 27.5567 30.0459 27.5567 24.2862 27.5567Z" fill="#00FF38"/>
<path d="M19.2556 35.4844C19.2556 29.8432 19.2556 24.9831 19.2556 19.5155C25.0153 19.5155 30.5051 19.5155 36.4448 19.5155C36.4448 24.8095 36.4448 29.8432 36.4448 35.4844C30.6851 35.4844 25.0153 35.4844 19.2556 35.4844Z" fill="#00FF38"/>
<path d="M14.2247 43.4125C14.2247 37.7713 14.2247 32.9112 14.2247 27.4436C19.9845 27.4436 25.4742 27.4436 31.4139 27.4436C31.4139 32.7376 31.4139 37.7713 31.4139 43.4125C25.6542 43.4125 19.9845 43.4125 14.2247 43.4125Z" fill="#00FF38"/>
<path d="M9.19415 51.3402C9.19415 45.699 9.19415 40.8389 9.19415 35.3713C14.9539 35.3713 20.4436 35.3713 26.3834 35.3713C26.3834 40.6654 26.3834 45.699 26.3834 51.3402C20.6236 51.3402 14.9539 51.3402 9.19415 51.3402Z" fill="#00FF38"/>
<path d="M62.7499 19.6288C62.7499 13.9876 62.7499 9.12752 62.7499 3.65991C68.5096 3.65991 73.9994 3.65991 79.9391 3.65991C79.9391 8.95395 79.9391 13.9876 79.9391 19.6288C74.1793 19.6288 68.5096 19.6288 62.7499 19.6288Z" fill="#00FF38"/>
<path d="M57.7187 27.5567C57.7187 21.9155 57.7187 17.0554 57.7187 11.5878C63.4784 11.5878 68.9682 11.5878 74.9079 11.5878C74.9079 16.8818 74.9079 21.9155 74.9079 27.5567C69.1482 27.5567 63.4784 27.5567 57.7187 27.5567Z" fill="#00FF38"/>
<path d="M52.6884 35.4844C52.6884 29.8432 52.6884 24.9831 52.6884 19.5155C58.4481 19.5155 63.9379 19.5155 69.8776 19.5155C69.8776 24.8095 69.8776 29.8432 69.8776 35.4844C64.1179 35.4844 58.4481 35.4844 52.6884 35.4844Z" fill="#00FF38"/>
<path d="M47.6575 43.4125C47.6575 37.7713 47.6575 32.9112 47.6575 27.4436C53.4173 27.4436 58.907 27.4436 64.8467 27.4436C64.8467 32.7376 64.8467 37.7713 64.8467 43.4125C59.087 43.4125 53.4173 43.4125 47.6575 43.4125Z" fill="#00FF38"/>
<path d="M42.6269 51.3402C42.6269 45.699 42.6269 40.8389 42.6269 35.3713C48.3867 35.3713 53.8764 35.3713 59.8162 35.3713C59.8162 40.6654 59.8162 45.699 59.8162 51.3402C54.0564 51.3402 48.3867 51.3402 42.6269 51.3402Z" fill="#00FF38"/>
</svg>
