<svg width="1667" height="1787" viewBox="0 0 1667 1787" fill="none" xmlns="http://www.w3.org/2000/svg">
<g opacity="0.8" filter="url(#filter0_f_236_5)">
<path d="M579.5 613C344.5 411.5 73 557.333 -83.5 654C409.5 2.99963 1195.5 222.5 1292.5 296C1389.5 369.5 1630 1326 1292.5 592.5C1022.5 5.69989 654.333 1207.17 603.5 1586.5C593.667 1541.5 800.348 802.365 579.5 613Z" fill="url(#paint0_linear_236_5)"/>
</g>
<g filter="url(#filter1_f_236_5)">
<path d="M280.5 390C448 505.5 612.5 441 750 866C729 497.5 621.5 419.5 280.5 390Z" fill="white" fill-opacity="0.2"/>
</g>
<defs>
<filter id="filter0_f_236_5" x="-283.5" y="0.706299" width="1949.96" height="1785.79" filterUnits="userSpaceOnUse" color-interpolation-filters="sRGB">
<feFlood flood-opacity="0" result="BackgroundImageFix"/>
<feBlend mode="normal" in="SourceGraphic" in2="BackgroundImageFix" result="shape"/>
<feGaussianBlur stdDeviation="100" result="effect1_foregroundBlur_236_5"/>
</filter>
<filter id="filter1_f_236_5" x="180.5" y="290" width="669.5" height="676" filterUnits="userSpaceOnUse" color-interpolation-filters="sRGB">
<feFlood flood-opacity="0" result="BackgroundImageFix"/>
<feBlend mode="normal" in="SourceGraphic" in2="BackgroundImageFix" result="shape"/>
<feGaussianBlur stdDeviation="50" result="effect1_foregroundBlur_236_5"/>
</filter>
<linearGradient id="paint0_linear_236_5" x1="691.482" y1="200.706" x2="691.482" y2="997" gradientUnits="userSpaceOnUse">
<stop stop-color="#00FF38"/>
<stop offset="1" stop-color="#00FF38" stop-opacity="0"/>
</linearGradient>
</defs>
</svg>
