<svg width="1162" height="529" viewBox="0 0 1162 529" fill="none" xmlns="http://www.w3.org/2000/svg">
<g clip-path="url(#clip0_223_3)">
<g clip-path="url(#clip1_223_3)">
<path d="M278.952 316.324L276.66 316.924L286.886 355.988L289.178 355.388L278.952 316.324Z" fill="white"/>
<path d="M281.843 318.017L279.552 318.617L280.152 320.909L282.443 320.309L281.843 318.017Z" fill="white"/>
<path d="M284.734 319.71L282.443 320.309L283.043 322.602L285.334 322.002L284.734 319.71Z" fill="white"/>
<path d="M287.625 321.402L285.334 322.002L285.934 324.295L288.226 323.695L287.625 321.402Z" fill="white"/>
<path d="M290.517 323.095L288.226 323.695L288.826 325.987L291.117 325.387L290.517 323.095Z" fill="white"/>
<path d="M293.466 324.822L291.175 325.421L291.775 327.714L294.066 327.114L293.466 324.822Z" fill="white"/>
<path d="M296.357 326.514L294.066 327.114L294.666 329.406L296.957 328.807L296.357 326.514Z" fill="white"/>
<path d="M299.249 328.207L296.957 328.807L297.558 331.099L299.849 330.499L299.249 328.207Z" fill="white"/>
<path d="M302.14 329.9L299.849 330.499L300.449 332.792L302.74 332.192L302.14 329.9Z" fill="white"/>
<path d="M305.031 331.592L302.74 332.192L303.34 334.484L305.631 333.885L305.031 331.592Z" fill="white"/>
<path d="M307.923 333.285L305.631 333.885L306.232 336.177L308.523 335.577L307.923 333.285Z" fill="white"/>
<path d="M310.814 334.978L308.523 335.577L309.123 337.87L311.414 337.27L310.814 334.978Z" fill="white"/>
<path d="M311.46 337.258L299.958 340.269L300.558 342.562L312.06 339.551L311.46 337.258Z" fill="white"/>
<path d="M302.849 341.962L300.558 342.562L301.158 344.854L303.449 344.254L302.849 341.962Z" fill="white"/>
<path d="M295.93 343.773L293.639 344.373L294.239 346.665L296.53 346.066L295.93 343.773Z" fill="white"/>
<path d="M298.867 345.454L296.576 346.054L297.776 350.638L300.067 350.039L298.867 345.454Z" fill="white"/>
<path d="M302.371 349.485L300.079 350.085L301.28 354.669L303.571 354.07L302.371 349.485Z" fill="white"/>
<path d="M308.153 352.87L303.571 354.07L304.171 356.362L308.753 355.163L308.153 352.87Z" fill="white"/>
<path d="M305.741 343.654L303.45 344.254L304.65 348.839L306.941 348.239L305.741 343.654Z" fill="white"/>
<path d="M309.244 347.685L306.953 348.285L308.153 352.87L310.444 352.27L309.244 347.685Z" fill="white"/>
<path d="M294.239 346.665L291.948 347.265L292.548 349.558L294.839 348.958L294.239 346.665Z" fill="white"/>
<path d="M292.56 349.603L290.269 350.203L290.869 352.496L293.16 351.896L292.56 349.603Z" fill="white"/>
<path d="M290.869 352.496L288.578 353.096L289.178 355.388L291.469 354.788L290.869 352.496Z" fill="white"/>
</g>
</g>
<path d="M1131.23 508.608C1131.23 506.059 1131.23 503.863 1131.23 501.392C1133.84 501.392 1136.32 501.392 1139 501.392C1139 503.784 1139 506.059 1139 508.608C1136.4 508.608 1133.84 508.608 1131.23 508.608Z" fill="white"/>
<path d="M1126.35 511.353C1126.35 508.804 1126.35 506.608 1126.35 504.137C1128.96 504.137 1131.44 504.137 1134.12 504.137C1134.12 506.529 1134.12 508.804 1134.12 511.353C1131.52 511.353 1128.96 511.353 1126.35 511.353Z" fill="white"/>
<path d="M1121.07 514.882C1121.07 512.333 1121.07 510.137 1121.07 507.667C1123.67 507.667 1126.15 507.667 1128.83 507.667C1128.83 510.059 1128.83 512.333 1128.83 514.882C1126.23 514.882 1123.67 514.882 1121.07 514.882Z" fill="white"/>
<path d="M1117 518.412C1117 515.863 1117 513.667 1117 511.196C1119.6 511.196 1122.08 511.196 1124.77 511.196C1124.77 513.588 1124.77 515.863 1124.77 518.412C1122.16 518.412 1119.6 518.412 1117 518.412Z" fill="white"/>
<path d="M1121.07 521.941C1121.07 519.392 1121.07 517.196 1121.07 514.725C1123.67 514.725 1126.15 514.725 1128.83 514.725C1128.83 517.118 1128.83 519.392 1128.83 521.941C1126.23 521.941 1123.67 521.941 1121.07 521.941Z" fill="white"/>
<path d="M1126.35 523.902C1126.35 521.353 1126.35 519.157 1126.35 516.686C1128.96 516.686 1131.44 516.686 1134.12 516.686C1134.12 519.078 1134.12 521.353 1134.12 523.902C1131.52 523.902 1128.96 523.902 1126.35 523.902Z" fill="white"/>
<path d="M1131.23 526.647C1131.23 524.098 1131.23 521.902 1131.23 519.431C1133.84 519.431 1136.32 519.431 1139 519.431C1139 521.824 1139 524.098 1139 526.647C1136.4 526.647 1133.84 526.647 1131.23 526.647Z" fill="white"/>
<path d="M1154.23 508.608C1154.23 506.059 1154.23 503.863 1154.23 501.392C1156.84 501.392 1159.32 501.392 1162 501.392C1162 503.784 1162 506.059 1162 508.608C1159.4 508.608 1156.84 508.608 1154.23 508.608Z" fill="white"/>
<path d="M1149.35 511.353C1149.35 508.804 1149.35 506.608 1149.35 504.137C1151.96 504.137 1154.44 504.137 1157.12 504.137C1157.12 506.529 1157.12 508.804 1157.12 511.353C1154.52 511.353 1151.96 511.353 1149.35 511.353Z" fill="white"/>
<path d="M1144.07 514.882C1144.07 512.333 1144.07 510.137 1144.07 507.667C1146.67 507.667 1149.15 507.667 1151.83 507.667C1151.83 510.059 1151.83 512.333 1151.83 514.882C1149.23 514.882 1146.67 514.882 1144.07 514.882Z" fill="white"/>
<path d="M1140 518.412C1140 515.863 1140 513.667 1140 511.196C1142.6 511.196 1145.08 511.196 1147.77 511.196C1147.77 513.588 1147.77 515.863 1147.77 518.412C1145.16 518.412 1142.6 518.412 1140 518.412Z" fill="white"/>
<path d="M1144.07 521.941C1144.07 519.392 1144.07 517.196 1144.07 514.725C1146.67 514.725 1149.15 514.725 1151.83 514.725C1151.83 517.118 1151.83 519.392 1151.83 521.941C1149.23 521.941 1146.67 521.941 1144.07 521.941Z" fill="white"/>
<path d="M1149.35 523.902C1149.35 521.353 1149.35 519.157 1149.35 516.686C1151.96 516.686 1154.44 516.686 1157.12 516.686C1157.12 519.078 1157.12 521.353 1157.12 523.902C1154.52 523.902 1151.96 523.902 1149.35 523.902Z" fill="white"/>
<path d="M1154.23 526.647C1154.23 524.098 1154.23 521.902 1154.23 519.431C1156.84 519.431 1159.32 519.431 1162 519.431C1162 521.824 1162 524.098 1162 526.647C1159.4 526.647 1156.84 526.647 1154.23 526.647Z" fill="white"/>
<path d="M179.233 38.6079C179.233 36.0589 179.233 33.8628 179.233 31.3922C181.835 31.3922 184.316 31.3922 187 31.3922C187 33.7844 187 36.0589 187 38.6079C184.397 38.6079 181.835 38.6079 179.233 38.6079Z" fill="white"/>
<path d="M174.353 41.353C174.353 38.804 174.353 36.6079 174.353 34.1373C176.956 34.1373 179.436 34.1373 182.12 34.1373C182.12 36.5295 182.12 38.804 182.12 41.353C179.518 41.353 176.956 41.353 174.353 41.353Z" fill="white"/>
<path d="M169.067 44.8824C169.067 42.3334 169.067 40.1373 169.067 37.6667C171.669 37.6667 174.15 37.6667 176.834 37.6667C176.834 40.0589 176.834 42.3334 176.834 44.8824C174.231 44.8824 171.669 44.8824 169.067 44.8824Z" fill="white"/>
<path d="M165 48.4119C165 45.8628 165 43.6668 165 41.1962C167.603 41.1962 170.083 41.1962 172.767 41.1962C172.767 43.5883 172.767 45.8628 172.767 48.4119C170.165 48.4119 167.603 48.4119 165 48.4119Z" fill="white"/>
<path d="M169.067 51.9413C169.067 49.3923 169.067 47.1962 169.067 44.7256C171.669 44.7256 174.15 44.7256 176.834 44.7256C176.834 47.1177 176.834 49.3923 176.834 51.9413C174.231 51.9413 171.669 51.9413 169.067 51.9413Z" fill="white"/>
<path d="M174.353 53.902C174.353 51.3529 174.353 49.1569 174.353 46.6863C176.956 46.6863 179.436 46.6863 182.12 46.6863C182.12 49.0784 182.12 51.3529 182.12 53.902C179.518 53.902 176.956 53.902 174.353 53.902Z" fill="white"/>
<path d="M179.233 56.6471C179.233 54.0981 179.233 51.902 179.233 49.4314C181.835 49.4314 184.316 49.4314 187 49.4314C187 51.8236 187 54.0981 187 56.6471C184.397 56.6471 181.835 56.6471 179.233 56.6471Z" fill="white"/>
<path d="M202.233 38.6079C202.233 36.0589 202.233 33.8628 202.233 31.3922C204.835 31.3922 207.316 31.3922 210 31.3922C210 33.7844 210 36.0589 210 38.6079C207.397 38.6079 204.835 38.6079 202.233 38.6079Z" fill="white"/>
<path d="M197.353 41.353C197.353 38.804 197.353 36.6079 197.353 34.1373C199.956 34.1373 202.436 34.1373 205.12 34.1373C205.12 36.5295 205.12 38.804 205.12 41.353C202.518 41.353 199.956 41.353 197.353 41.353Z" fill="white"/>
<path d="M192.067 44.8824C192.067 42.3334 192.067 40.1373 192.067 37.6667C194.669 37.6667 197.15 37.6667 199.834 37.6667C199.834 40.0589 199.834 42.3334 199.834 44.8824C197.231 44.8824 194.669 44.8824 192.067 44.8824Z" fill="white"/>
<path d="M188 48.4119C188 45.8628 188 43.6668 188 41.1962C190.603 41.1962 193.083 41.1962 195.767 41.1962C195.767 43.5883 195.767 45.8628 195.767 48.4119C193.165 48.4119 190.603 48.4119 188 48.4119Z" fill="white"/>
<path d="M192.067 51.9413C192.067 49.3923 192.067 47.1962 192.067 44.7256C194.669 44.7256 197.15 44.7256 199.834 44.7256C199.834 47.1177 199.834 49.3923 199.834 51.9413C197.231 51.9413 194.669 51.9413 192.067 51.9413Z" fill="white"/>
<path d="M197.353 53.902C197.353 51.3529 197.353 49.1569 197.353 46.6863C199.956 46.6863 202.436 46.6863 205.12 46.6863C205.12 49.0784 205.12 51.3529 205.12 53.902C202.518 53.902 199.956 53.902 197.353 53.902Z" fill="white"/>
<path d="M202.233 56.6471C202.233 54.0981 202.233 51.902 202.233 49.4314C204.835 49.4314 207.316 49.4314 210 49.4314C210 51.8236 210 54.0981 210 56.6471C207.397 56.6471 204.835 56.6471 202.233 56.6471Z" fill="white"/>
<path d="M135.204 460.939C136.354 454.814 137.344 449.538 138.458 443.601C143.437 444.536 148.183 445.427 153.318 446.39C152.24 452.138 151.214 457.603 150.065 463.728C145.085 462.793 140.184 461.873 135.204 460.939Z" fill="#00FF38"/>
<path d="M138.611 456.45C139.76 450.325 140.75 445.049 141.864 439.113C145.184 439.736 148.348 440.329 151.771 440.972C150.693 446.72 149.667 452.185 148.518 458.309C145.198 457.686 141.93 457.073 138.611 456.45Z" fill="#00FF38"/>
<path d="M167.249 454.133C167.906 450.633 168.472 447.618 169.108 444.225C174.088 445.16 178.834 446.051 183.969 447.014C183.353 450.299 182.767 453.422 182.11 456.921C177.13 455.987 172.229 455.067 167.249 454.133Z" fill="#00FF38"/>
<path d="M157.489 506.145C158.145 502.645 158.711 499.63 159.348 496.238C164.327 497.172 169.073 498.063 174.208 499.026C173.592 502.311 173.006 505.434 172.349 508.933C167.37 507.999 162.468 507.079 157.489 506.145Z" fill="#00FF38"/>
<path d="M160.901 460.633C161.558 457.133 162.124 454.118 162.761 450.726C171.06 452.284 178.97 453.768 187.528 455.374C186.912 458.659 186.326 461.781 185.669 465.281C177.37 463.724 169.2 462.191 160.901 460.633Z" fill="#00FF38"/>
<path d="M156.718 482.924C157.375 479.424 157.941 476.409 158.577 473.017C166.877 474.575 174.787 476.059 183.345 477.665C182.729 480.949 182.143 484.072 181.486 487.572C173.187 486.015 165.017 484.482 156.718 482.924Z" fill="#00FF38"/>
<path d="M153.465 500.261C154.121 496.762 154.687 493.747 155.324 490.354C163.623 491.912 171.533 493.396 180.091 495.002C179.475 498.287 178.889 501.41 178.232 504.909C169.933 503.352 161.764 501.819 153.465 500.261Z" fill="#00FF38"/>
<path d="M148.976 496.855C149.633 493.355 150.199 490.34 150.835 486.948C153.325 487.415 155.698 487.861 158.265 488.342C157.649 491.627 157.063 494.75 156.406 498.249C153.916 497.782 151.466 497.322 148.976 496.855Z" fill="#00FF38"/>
<path d="M182.728 467.293C183.384 463.793 183.95 460.778 184.587 457.386C187.076 457.853 189.449 458.299 192.017 458.781C191.401 462.065 190.815 465.188 190.158 468.688C187.668 468.22 185.217 467.76 182.728 467.293Z" fill="#00FF38"/>
<path d="M152.23 479.518C153.872 470.768 155.286 463.23 156.878 454.75C160.197 455.373 163.361 455.967 166.785 456.609C165.244 464.82 163.779 472.628 162.137 481.377C158.817 480.754 155.549 480.141 152.23 479.518Z" fill="#00FF38"/>
<path d="M173.279 503.98C174.592 496.98 175.724 490.95 176.997 484.166C180.317 484.789 183.481 485.383 186.904 486.025C185.672 492.594 184.499 498.84 183.186 505.839C179.866 505.216 176.598 504.603 173.279 503.98Z" fill="#00FF38"/>
<path d="M132.415 475.799C134.057 467.05 135.472 459.512 137.063 451.032C142.043 451.966 146.789 452.857 151.924 453.821C150.383 462.032 148.918 469.839 147.276 478.588C142.297 477.654 137.395 476.734 132.415 475.799Z" fill="#00FF38"/>
<path d="M130.091 488.183C131.733 479.434 133.148 471.896 134.739 463.416C139.719 464.35 144.465 465.241 149.6 466.204C148.059 474.415 146.594 482.223 144.952 490.972C139.973 490.038 135.071 489.118 130.091 488.183Z" fill="#00FF38"/>
<path d="M106.406 491.43C107.063 487.931 107.629 484.915 108.265 481.523C119.884 483.704 130.958 485.782 142.94 488.031C142.324 491.315 141.738 494.438 141.081 497.938C129.462 495.757 118.025 493.611 106.406 491.43Z" fill="#00FF38"/>
<path d="M110.43 497.313C111.087 493.814 111.653 490.799 112.289 487.406C119.758 488.808 126.877 490.144 134.58 491.59C133.964 494.874 133.378 497.997 132.721 501.497C125.252 500.095 117.899 498.715 110.43 497.313Z" fill="#00FF38"/>
<path d="M103.93 490.966C105.079 484.841 106.069 479.564 107.183 473.628C112.163 474.563 116.909 475.453 122.044 476.417C120.965 482.165 119.939 487.63 118.79 493.754C113.811 492.82 108.909 491.9 103.93 490.966Z" fill="#00FF38"/>
<path d="M109.195 476.57C109.687 473.945 110.112 471.684 110.589 469.139C113.909 469.762 117.073 470.356 120.496 470.999C120.034 473.462 119.595 475.804 119.102 478.429C115.782 477.806 112.515 477.193 109.195 476.57Z" fill="#00FF38"/>
<path d="M1137.46 4.96C1137.46 3.20783 1137.46 1.69826 1137.46 0C1139.95 0 1142.33 0 1144.9 0C1144.9 1.64435 1144.9 3.20783 1144.9 4.96C1142.41 4.96 1139.95 4.96 1137.46 4.96Z" fill="#00FF38"/>
<path d="M1137.46 31C1137.46 29.2479 1137.46 27.7383 1137.46 26.04C1139.95 26.04 1142.33 26.04 1144.9 26.04C1144.9 27.6844 1144.9 29.2479 1144.9 31C1142.41 31 1139.95 31 1137.46 31Z" fill="#00FF38"/>
<path d="M1134.98 8.67997C1134.98 6.9278 1134.98 5.41823 1134.98 3.71997C1139.14 3.71997 1143.1 3.71997 1147.38 3.71997C1147.38 5.36432 1147.38 6.9278 1147.38 8.67997C1143.23 8.67997 1139.14 8.67997 1134.98 8.67997Z" fill="#00FF38"/>
<path d="M1134.98 19.84C1134.98 18.0878 1134.98 16.5783 1134.98 14.88C1139.14 14.88 1143.1 14.88 1147.38 14.88C1147.38 16.5244 1147.38 18.0878 1147.38 19.84C1143.23 19.84 1139.14 19.84 1134.98 19.84Z" fill="#00FF38"/>
<path d="M1134.98 28.5201C1134.98 26.7679 1134.98 25.2583 1134.98 23.5601C1139.14 23.5601 1143.1 23.5601 1147.38 23.5601C1147.38 25.2044 1147.38 26.7679 1147.38 28.5201C1143.23 28.5201 1139.14 28.5201 1134.98 28.5201Z" fill="#00FF38"/>
<path d="M1132.5 27.2799C1132.5 25.5278 1132.5 24.0182 1132.5 22.3199C1133.75 22.3199 1134.94 22.3199 1136.22 22.3199C1136.22 23.9643 1136.22 25.5278 1136.22 27.2799C1134.97 27.2799 1133.75 27.2799 1132.5 27.2799Z" fill="#00FF38"/>
<path d="M1146.14 9.91996C1146.14 8.16779 1146.14 6.65822 1146.14 4.95996C1147.39 4.95996 1148.58 4.95996 1149.86 4.95996C1149.86 6.60431 1149.86 8.16779 1149.86 9.91996C1148.61 9.91996 1147.39 9.91996 1146.14 9.91996Z" fill="#00FF38"/>
<path d="M1132.5 18.6C1132.5 14.2195 1132.5 10.4456 1132.5 6.19995C1134.16 6.19995 1135.75 6.19995 1137.46 6.19995C1137.46 10.3108 1137.46 14.2195 1137.46 18.6C1135.8 18.6 1134.16 18.6 1132.5 18.6Z" fill="#00FF38"/>
<path d="M1144.9 28.52C1144.9 25.0156 1144.9 21.9965 1144.9 18.6C1146.56 18.6 1148.15 18.6 1149.86 18.6C1149.86 21.8887 1149.86 25.0156 1149.86 28.52C1148.2 28.52 1146.56 28.52 1144.9 28.52Z" fill="#00FF38"/>
<path d="M1113.2 31C1113.2 20.8502 1113.2 12.1058 1113.2 2.26831C1115.23 2.26831 1117.16 2.26831 1119.25 2.26831C1119.25 11.7935 1119.25 20.8502 1119.25 31C1117.23 31 1115.23 31 1113.2 31Z" fill="#00FF38"/>
<path d="M1107.91 4.22401e-05C1113.79 4.23102e-05 1118.85 4.23706e-05 1124.55 4.24385e-05C1124.55 1.77351 1124.55 3.46384 1124.55 5.29272C1119.03 5.29272 1113.79 5.29272 1107.91 5.29272C1107.91 3.51926 1107.91 1.77351 1107.91 4.22401e-05Z" fill="#00FF38"/>
<path d="M1104.89 0.756146C1106.49 0.756146 1107.87 0.756146 1109.42 0.756146C1109.42 2.52961 1109.42 4.21994 1109.42 6.04883C1107.92 6.04883 1106.49 6.04883 1104.89 6.04883C1104.89 4.27536 1104.89 2.52961 1104.89 0.756146Z" fill="#00FF38"/>
<path d="M1102.62 1.51224C1104.22 1.51224 1105.6 1.51224 1107.16 1.51224C1107.16 3.03236 1107.16 4.48121 1107.16 6.04883C1105.65 6.04883 1104.22 6.04883 1102.62 6.04883C1102.62 4.52872 1102.62 3.03236 1102.62 1.51224Z" fill="#00FF38"/>
<path d="M1127.57 0.756146C1125.97 0.756146 1124.59 0.756146 1123.03 0.756146C1123.03 2.52961 1123.03 4.21994 1123.03 6.04883C1124.54 6.04883 1125.97 6.04883 1127.57 6.04883C1127.57 4.27536 1127.57 2.52961 1127.57 0.756146Z" fill="#00FF38"/>
<path d="M1129.84 1.51224C1128.24 1.51224 1126.86 1.51224 1125.3 1.51224C1125.3 3.03236 1125.3 4.48121 1125.3 6.04883C1126.81 6.04883 1128.24 6.04883 1129.84 6.04883C1129.84 4.52872 1129.84 3.03236 1129.84 1.51224Z" fill="#00FF38"/>
<path d="M1045.57 290.763C1045.57 288.333 1045.57 286.24 1045.57 283.885C1043.09 283.885 1040.72 283.885 1038.16 283.885C1038.16 286.165 1038.16 288.333 1038.16 290.763C1040.65 290.763 1043.09 290.763 1045.57 290.763Z" fill="white"/>
<path d="M1047.74 294.178C1047.74 291.748 1047.74 289.655 1047.74 287.299C1045.26 287.299 1042.89 287.299 1040.33 287.299C1040.33 289.58 1040.33 291.748 1040.33 294.178C1042.81 294.178 1045.26 294.178 1047.74 294.178Z" fill="white"/>
<path d="M1049.9 297.593C1049.9 295.163 1049.9 293.07 1049.9 290.715C1047.42 290.715 1045.06 290.715 1042.5 290.715C1042.5 292.995 1042.5 295.163 1042.5 297.593C1044.98 297.593 1047.42 297.593 1049.9 297.593Z" fill="white"/>
<path d="M1052.07 301.009C1052.07 298.579 1052.07 296.485 1052.07 294.13C1049.59 294.13 1047.22 294.13 1044.67 294.13C1044.67 296.41 1044.67 298.579 1044.67 301.009C1047.15 301.009 1049.59 301.009 1052.07 301.009Z" fill="white"/>
<path d="M1054.24 304.424C1054.24 301.994 1054.24 299.9 1054.24 297.545C1051.76 297.545 1049.39 297.545 1046.83 297.545C1046.83 299.825 1046.83 301.994 1046.83 304.424C1049.31 304.424 1051.76 304.424 1054.24 304.424Z" fill="white"/>
<path d="M1031.17 290.763C1031.17 288.333 1031.17 286.24 1031.17 283.885C1028.69 283.885 1026.32 283.885 1023.76 283.885C1023.76 286.165 1023.76 288.333 1023.76 290.763C1026.24 290.763 1028.69 290.763 1031.17 290.763Z" fill="white"/>
<path d="M1033.33 294.178C1033.33 291.748 1033.33 289.655 1033.33 287.299C1030.85 287.299 1028.49 287.299 1025.93 287.299C1025.93 289.58 1025.93 291.748 1025.93 294.178C1028.41 294.178 1030.85 294.178 1033.33 294.178Z" fill="white"/>
<path d="M1035.5 297.593C1035.5 295.163 1035.5 293.07 1035.5 290.715C1033.02 290.715 1030.66 290.715 1028.1 290.715C1028.1 292.995 1028.1 295.163 1028.1 297.593C1030.58 297.593 1033.02 297.593 1035.5 297.593Z" fill="white"/>
<path d="M1037.67 301.009C1037.67 298.579 1037.67 296.485 1037.67 294.13C1035.19 294.13 1032.82 294.13 1030.26 294.13C1030.26 296.41 1030.26 298.579 1030.26 301.009C1032.75 301.009 1035.19 301.009 1037.67 301.009Z" fill="white"/>
<path d="M1039.84 304.424C1039.84 301.994 1039.84 299.9 1039.84 297.545C1037.35 297.545 1034.99 297.545 1032.43 297.545C1032.43 299.825 1032.43 301.994 1032.43 304.424C1034.91 304.424 1037.35 304.424 1039.84 304.424Z" fill="white"/>
<path d="M8.42105 194.053C8.42105 192.193 8.42105 190.591 8.42105 188.789C12.3009 188.789 15.9989 188.789 20 188.789C20 190.534 20 192.193 20 194.053C16.1201 194.053 12.3009 194.053 8.42105 194.053Z" fill="white"/>
<path d="M3.14713e-05 209.842C3.14713e-05 207.983 3.14713e-05 206.381 3.14713e-05 204.579C3.87989 204.579 7.57788 204.579 11.579 204.579C11.579 206.324 11.579 207.983 11.579 209.842C7.69912 209.842 3.87989 209.842 3.14713e-05 209.842Z" fill="white"/>
<path d="M3.14713e-05 179.316C3.14713e-05 177.457 3.14713e-05 175.855 3.14713e-05 174.053C3.87989 174.053 7.57788 174.053 11.579 174.053C11.579 175.797 11.579 177.457 11.579 179.316C7.69912 179.316 3.87989 179.316 3.14713e-05 179.316Z" fill="white"/>
<path d="M6.31568 200.595C6.31568 197.912 6.31568 195.601 6.31568 193C9.05525 193 11.6664 193 14.4916 193C14.4916 195.518 14.4916 197.912 14.4916 200.595C11.752 200.595 9.05525 200.595 6.31568 200.595Z" fill="white"/>
<path d="M4.21046 184.806C4.21046 182.123 4.21046 179.811 4.21046 177.211C6.95003 177.211 9.56117 177.211 12.3864 177.211C12.3864 179.729 12.3864 182.123 12.3864 184.806C9.64679 184.806 6.95003 184.806 4.21046 184.806Z" fill="white"/>
<path d="M4.21046 205.859C4.21046 203.175 4.21046 200.864 4.21046 198.263C6.95003 198.263 9.56117 198.263 12.3864 198.263C12.3864 200.781 12.3864 203.175 12.3864 205.859C9.64679 205.859 6.95003 205.859 4.21046 205.859Z" fill="white"/>
<path d="M6.31568 190.069C6.31568 187.386 6.31568 185.074 6.31568 182.474C9.05525 182.474 11.6664 182.474 14.4916 182.474C14.4916 184.992 14.4916 187.386 14.4916 190.069C11.752 190.069 9.05525 190.069 6.31568 190.069Z" fill="white"/>
<defs>
<clipPath id="clip0_223_3">
<rect width="51.028" height="51.028" fill="white" transform="translate(265 316.923) rotate(-14.6698)"/>
</clipPath>
<clipPath id="clip1_223_3">
<rect width="28.4682" height="45.1195" fill="white" transform="translate(276.66 316.924) rotate(-14.6698)"/>
</clipPath>
</defs>
</svg>
